# xmcd CD database file
#
# Track frame offsets:
#	151
#	10373
#	36736
#	55582
#	75649
#	90789
#	114937
#	127256
#	150873
#	169912
#	195102
#	211124
#	231719
#	250309
#	273777
#	296696
#	314027
#	336347
#
# Disc length: 4690 seconds
#
# Revision: 0
# Processed by: cddbd v1.5.2PL0 Copyright (c) Steve Scherf et al.
# Submitted via: CDex 1.51
#
DISCID=f8125012
DTITLE=W.B. Jasscrooners - Gimme that Old New Orleans Jazz
DYEAR=2004
DGENRE=Jazz
TTITLE0=Gimme that good Old New Orleans Jazz
TTITLE1=The Glory Of Love
TTITLE2=My Little Girl
TTITLE3=If I Could Be With You
TTITLE4=You were meant For Me
TTITLE5=Am I Blue
TTITLE6=You're Nobody 'Till Somebody Loves You
TTITLE7=Of All The Wrongs You've Done To Me
TTITLE8=You'd Be Surprised
TTITLE9=Pass Me Not, Oh Gentle Savior
TTITLE10=In The Gloaming
TTITLE11=Miss Celie's Blues
TTITLE12=Hold Me
TTITLE13=River, Stay 'Way From My Door
TTITLE14=Dallas Blues
TTITLE15=I Want To Be Happy
TTITLE16=Home
TTITLE17=I'm With You Anywhere You Are
EXTD=YEAR: 2004
EXTT0=
EXTT1=
EXTT2=
EXTT3=
EXTT4=
EXTT5=
EXTT6=
EXTT7=
EXTT8=
EXTT9=
EXTT10=
EXTT11=
EXTT12=
EXTT13=
EXTT14=
EXTT15=
EXTT16=
EXTT17=
PLAYORDER=
